<svg xmlns="http://www.w3.org/2000/svg" viewBox="0 15 1451.3 360" xml:space="preserve">
    <style>
        .st0{fill:#FFF}.st1{fill:#FFF}
    </style>
    <g id="Rosário">
        <path class="st0" d="M364.7 202.2v-18.6c-12.8 13.7-29.3 27-49.5 40-36.6 23.6-77.5 38.3-118.9 43-6.7-5.5-13.3-11.1-19.8-16.6-11.1-9.5-28.8-26.6-41.8-48.5 5.1-1.2 9.8-2.3 13.8-3.2 43.5-10.1 92.6-16.2 130.5-20.5 14.4-1.6 29.8-3.2 45.4-4.5-1.6-2.3-2.5-5.1-2.6-8.2 0-1.7.3-3.4.8-4.9-15.6 1.3-30.8 2.9-45.1 4.5-38.3 4.3-87.8 10.5-132 20.7-5.9 1.4-11.7 2.7-17.2 4.1-9.8-21-14.2-45.4-5.1-71.1 9.7-27.3 33.9-45.7 59.6-45.7 1.1 0 2.2 0 3.4.1 25.7 1.6 49.7 20.6 64.2 50.8 1.1 2.4 3.5 3.8 6.2 3.8 2.6-.1 4.9-1.7 5.9-4.1 4.4-10.8 13.5-26.1 17.2-30.3 9.5-11.2 19.9-19.5 30.8-24.8 21.1-10.2 48.2-6.4 67.5 9.4 13.6 11.2 20.4 26.2 19.5 42.2 3.6 2.7 5.7 7 5.7 11.9 0 5.9-3.3 10.9-8.4 13.3v4.7h5.9c1-2.2 2.6-4.2 4.6-5.6 1.2-3.4 2.4-6.9 3.3-10.3 6.5-24.8-1.8-49.6-22.3-66.4-23.2-19.1-56.1-23.6-81.7-11.1-12.5 6.1-24.3 15.5-35 28.1-3.3 3.8-8.9 12.7-13.6 21.8-16.9-27.7-42-44.9-68.9-46.6-33.3-2.1-63.9 19.7-76.2 54.3-9 25.3-7.5 51.8 4.6 78.9-34.8 9.3-58.1 18.8-67.5 32.1-4.9 6.9-5.8 14.7-2.6 22.1 6.9 15.8 32.4 28.9 65.2 33.4 25.2 3.5 46.3 2.2 66.7.9l6-.4c3-.2 6.1-.4 9.1-.7 23.1 18.8 48 37.2 75.3 52.7 1 .6 2.1.9 3.3.9 2.3 0 4.5-1.2 5.8-3.4 1.8-3.2.7-7.2-2.5-9-22.7-12.9-43.8-27.9-63.6-43.5 39.1-6.3 77.3-21 112-43.3 16.1-10.5 30.2-21.3 42-32.4zm-188.4 66c-19.7 1.2-40.2 2.5-64.1-.8-30.6-4.2-50.7-16-54.9-25.6-1.4-3.2-1-6 1.2-9.2 8.1-11.5 37.4-21.1 62.8-27.7 13.4 24 32.3 43 46.6 55.2 3.1 2.7 6.3 5.4 9.5 8.1h-1.1z"/>
        <path class="st0" d="M404.2 163.1h-.2c-5.1-.1-9.7-.1-14 0-2.6 0-4.7-.7-6.3-2.3-1.2-1.2-1.8-2.6-2.1-3.8-1.3 0-2.7.1-4.1.1-.3 1.4-1 2.6-2 3.6-2.4 2.4-5.4 2.3-6.4 2.3-4.7-.1-9.1-.1-13.3 0-3.7 0-6.5-1.7-8-4.8-1.7.1-3.3.2-5 .3-1 1.9-2.8 3.9-6.4 4.5-.5.1-1.7.5-1.7 1.8s1.1 1.6 1.7 1.7c4.1.7 5.9 3.1 6.7 5.2l4.5-.3c1.3-3 4.1-4.8 7.6-4.8h.2c4.7.1 9.3.1 13.6 0h.2c2.5 0 4.5.8 6.1 2.3 1.6 1.6 2.4 3.6 2.4 6.2v13.5c1.2-1.4 2.4-2.7 3.5-4.1v-9.3c0-2.6.8-4.7 2.4-6.2 1.6-1.6 3.7-2.3 6.2-2.3 4 .1 8.3.1 13.8 0h.1c3.3 0 6 1.4 7.5 3.9 1.8.1 3.5.2 5.3.3 1.2-2.5 3.5-4.1 6.5-4.5 1-.1 1.6-.9 1.6-1.8s-.6-1.6-1.6-1.7c-2-.3-5.2-1.3-6.8-5.2-1.5-.1-2.9-.2-4.3-.2-.9 3.5-3.8 5.6-7.7 5.6zM371.2 241.9c-1.6.3-1.7 1.1-1.7 1.8s.2 1.4 1.6 1.7c2.7.5 6 2.2 6.8 7.3.1.5.4.9.9 1.1.7-.1 1.4-.2 2.2-.4.2-.2.3-.3.3-.5.6-4 3.1-6.6 7.2-7.6 1-.2 1.4-.7 1.3-1.7 0-.3-.1-1.4-1.1-1.5-1.5-.2-3.5-.9-5-2.5-3.7.7-7.3 1.3-10.7 1.8-.7.3-1.4.5-1.8.5zM490.3 179.4c-7-11.6-30.1-17.2-53.2-20 .6 1.6.9 3.3.9 5.1 0 3-.9 5.7-2.3 8.1 25.7 3.1 40.3 8.7 43.3 13.7 1.9 3.1 2 6 .4 9.3-7.4 15.3-44.9 31.3-78.5 40.1 1.4 2.3 2.2 4.9 2.2 7.8 0 1.9-.3 3.8-1 5.5 35.6-9 78.9-26.6 89.1-47.6 3.6-7.4 3.3-15-.9-22z"/>
        <path class="st1" d="M378.8 262.7h-.3c-4.4-.1-8.2-3.5-8.9-7.7-.1-.9-.2-.9-.9-1.1-4.7-.9-7.7-4.5-7.7-9.1 0-4.7 3.1-8.3 7.8-9.2.4-.1.5-.2.5-.2s.1-.2.1-.7v-58.5c0-.7-.1-.8-.1-.8s-.1-.1-.8-.1c-4.4.1-9.1.1-13.8 0-.7 0-.8 0-.9.8-.9 4.5-4.6 7.6-9.1 7.6h-.1c-4.4-.1-8.2-3.3-8.9-7.7-.1-.7-.2-.8-1.1-1-4.7-.8-8-4.4-8-9.1-.1-4.6 3.1-8.4 7.8-9.3 1-.2 1.2-.4 1.3-1.2.7-4.2 4.6-7.4 8.9-7.4 4.4 0 8.3 3.1 9.2 7.4.2 1 .3 1.1 1.2 1 4.4-.1 8.8-.1 13.6 0 .7 0 .8-.1.9-.1 0 0 .1-.1.1-.8-.1-4.3-.1-8.6 0-12.8 0-1 0-1-.8-1.1-4.6-.8-7.7-4.5-7.6-9.1 0-4.6 3-8.2 7.7-9.1.8-.2.8-.2.8-.8.5-4.7 4.4-8.1 9.2-8.1 4.8 0 8.7 3.4 9.3 8 .1.7.1.8.9.9 4.6.9 7.6 4.5 7.6 9.2 0 4.5-3 8.1-7.5 9-.9.2-.9.3-.9 1.2.1 4.6.1 8.7 0 12.6 0 .7.1.9.1.9s.1.1.8.1c4.4-.1 9.1-.1 14.2 0 .8 0 .9 0 1-.9.6-4.4 4.4-7.6 8.8-7.8 4.5-.1 8.5 3 9.3 7.5.2 1 .2 1 .9 1.1 4.7.6 8.2 4.5 8.2 9.2 0 4.7-3.4 8.6-8.1 9.3-.8.1-.9.2-1 .9-.8 4.3-4.4 7.5-8.8 7.6-4.7.1-8.4-2.8-9.3-7.2-.2-.9-.3-.9-1.3-.9-5.6.1-9.9.1-14 0-.7 0-.8.1-.8.1s-.1.1-.1.8V234c0 1.3 0 1.4 1 1.5 4.3.7 7.3 4.4 7.4 8.9 0 4.5-2.7 8-7.1 9.1-1.1.3-1.4.4-1.5 1.5-.7 4.4-4.8 7.7-9.2 7.7zM318.6 274.5c0-.3.1-.7.2-.9.1-.3.3-.5.5-.7.2-.2.4-.3.7-.4.3-.1.5-.1.8-.1.3 0 .5 0 .8.1.3.1.5.2.7.4.2.2.4.4.5.7.1.3.2.6.2.9v13.1c0 .9.1 1.7.4 2.4.3.7.7 1.2 1.2 1.7.5.4 1 .8 1.7 1 .6.2 1.3.3 1.9.3.7 0 1.3-.1 1.9-.3.6-.2 1.2-.5 1.7-1 .5-.4.9-1 1.2-1.7.3-.7.4-1.5.4-2.4v-13.1c0-.3.1-.7.2-.9.1-.3.3-.5.5-.7.2-.2.4-.3.7-.4.3-.1.5-.1.8-.1.3 0 .5 0 .8.1.3.1.5.2.7.4.2.2.4.4.5.7.1.3.2.6.2.9v13.2c0 1.4-.3 2.7-.8 3.7-.5 1.1-1.2 1.9-2.1 2.6-.9.7-1.9 1.2-3 1.6-1.2.3-2.4.5-3.7.5-1.3 0-2.5-.2-3.7-.5-1.2-.3-2.2-.9-3-1.6-.9-.7-1.5-1.6-2.1-2.6-.5-1.1-.8-2.3-.8-3.7v-13.2zM344.6 275.6c-.3 0-.5 0-.7-.1-.2-.1-.4-.2-.5-.4-.1-.2-.2-.3-.3-.5-.1-.2-.1-.4-.1-.6 0-.2 0-.4.1-.6.1-.2.2-.4.3-.5.1-.2.3-.3.5-.4.2-.1.4-.1.7-.1H360c.3 0 .5 0 .7.1.2.1.4.2.5.4.1.2.2.3.3.5.1.2.1.4.1.6 0 .2 0 .4-.1.6-.1.2-.2.4-.3.5-.1.2-.3.3-.5.4-.2.1-.4.1-.7.1h-5.4v17.9c0 .3-.1.7-.2.9s-.3.5-.5.7c-.2.2-.4.3-.7.4-.3.1-.5.1-.8.1s-.5 0-.8-.1c-.3-.1-.5-.2-.7-.4-.2-.2-.4-.4-.5-.7-.1-.3-.2-.6-.2-.9v-17.9h-5.6zM387.3 292.3l6.2-18.5c.1-.5.4-.8.8-1.1.4-.3.8-.4 1.2-.4.3 0 .5 0 .8.1.2.1.4.2.6.4.2.2.3.4.4.6.1.2.2.5.2.7v.3c0 .1 0 .2-.1.3l-6.4 18c-.2.5-.4 1-.6 1.3-.2.4-.5.7-.8.9-.3.2-.7.4-1 .5-.4.1-.8.1-1.2.1-.4 0-.9 0-1.2-.1-.4-.1-.7-.2-1-.5-.3-.2-.6-.5-.8-.9-.2-.4-.4-.8-.6-1.4l-6.5-18c-.1-.2-.1-.4-.1-.6 0-.3.1-.5.2-.8.1-.2.3-.4.5-.6.2-.2.4-.3.7-.4.3-.1.5-.2.8-.2.4 0 .8.1 1.2.4.4.3.6.6.7 1.1l6 18.8zM404.6 274.4c0-.3.1-.7.2-.9.1-.3.3-.5.5-.7.2-.2.4-.3.7-.4.3-.1.5-.1.8-.1.3 0 .5 0 .8.1.3.1.5.2.7.4.2.2.4.4.5.7.1.3.2.6.2.9v19.1c0 .3-.1.6-.2.9-.1.3-.3.5-.5.6-.2.2-.4.3-.7.4-.3.1-.5.1-.8.1-.3 0-.5 0-.8-.1-.3-.1-.5-.2-.7-.4-.2-.2-.4-.4-.5-.6-.1-.3-.2-.6-.2-.9v-19.1zM416.7 275.6c-.3 0-.5 0-.7-.1-.2-.1-.4-.2-.5-.4-.1-.2-.2-.3-.3-.5-.1-.2-.1-.4-.1-.6 0-.2 0-.4.1-.6.1-.2.2-.4.3-.5.1-.2.3-.3.5-.4.2-.1.4-.1.7-.1H432c.3 0 .5 0 .7.1.2.1.4.2.5.4.1.2.2.3.3.5.1.2.1.4.1.6 0 .2 0 .4-.1.6-.1.2-.2.4-.3.5-.1.2-.3.3-.5.4-.2.1-.5.1-.7.1h-5.4v17.9c0 .3-.1.7-.2.9-.1.3-.3.5-.5.7-.2.2-.4.3-.7.4-.3.1-.5.1-.8.1-.3 0-.5 0-.8-.1-.3-.1-.5-.2-.7-.4-.2-.2-.4-.4-.5-.7-.1-.3-.2-.6-.2-.9v-17.9h-5.5zM457.4 293.1c.1.2.1.4.1.6 0 .3-.1.6-.2.8-.1.2-.3.4-.5.6-.2.2-.4.3-.7.4-.3.1-.5.1-.8.1-.4 0-.8-.1-1.1-.3-.4-.2-.6-.6-.7-1l-1.7-4.3h-10.4l-1.7 4.3c-.1.5-.4.8-.7 1.1-.3.2-.7.3-1.1.3-.3 0-.5 0-.8-.1-.3-.1-.5-.2-.7-.4-.2-.2-.4-.4-.5-.6-.1-.2-.2-.5-.2-.8v-.3c0-.1 0-.2.1-.4l6.8-17c.3-.8.5-1.4.8-1.9.3-.5.6-.9.9-1.1.3-.3.6-.5 1-.6.4-.1.8-.2 1.2-.2.5 0 .9.1 1.2.2.4.1.7.3 1 .6.3.3.6.7.9 1.1.3.5.5 1.1.8 1.8l7 17.1zm-10.8-17.4-4.3 11.5h8.6l-4.3-11.5zM477.9 290.4l6.6-14.9c.3-.6.5-1.1.7-1.5.2-.4.5-.7.8-1 .3-.2.6-.4.9-.5.3-.1.7-.1 1.1-.1.4 0 .8.1 1.2.2.4.1.7.3 1 .6.3.3.5.6.7 1.1.2.4.3 1 .3 1.6v17.9c0 .3-.1.6-.2.8-.1.2-.2.4-.4.6-.2.2-.4.3-.6.4-.2.1-.4.1-.7.1s-.4 0-.7-.1c-.2-.1-.4-.2-.6-.4-.2-.2-.3-.4-.4-.6-.1-.2-.2-.5-.2-.8v-17.3l-7.2 16.5c-.1.3-.3.6-.4.8l-.6.6c-.2.2-.5.3-.7.4-.3.1-.5.1-.8.1-.5 0-1-.1-1.4-.4-.4-.3-.8-.8-1-1.4l-7.2-16.4v17.2c0 .3-.1.6-.2.8-.1.2-.2.4-.4.6-.2.2-.4.3-.6.4-.2.1-.4.1-.7.1-.2 0-.4 0-.7-.1-.2-.1-.4-.2-.6-.4-.2-.2-.3-.4-.4-.6-.1-.2-.2-.5-.2-.8V276c0-.6.1-1.2.3-1.6.2-.4.4-.8.7-1.1.3-.3.6-.5 1-.6.4-.1.8-.2 1.2-.2s.8.1 1.1.2c.3.1.6.3.9.5.3.2.6.6.8 1 .3.4.5.9.7 1.5l6.9 14.7zM333.4 314.3c0-.3.1-.6.2-.9.1-.3.3-.5.5-.7.2-.2.4-.3.7-.4.3-.1.5-.1.8-.1.3 0 .5 0 .8.1.3.1.5.2.7.4.2.2.4.4.5.7.1.3.2.6.2.9v19.1c0 .3-.1.7-.2.9-.1.3-.3.5-.5.7-.2.2-.4.3-.7.4-.3.1-.5.1-.8.1-.3 0-.5 0-.8-.1-.3-.1-.5-.2-.7-.4s-.4-.4-.5-.7c-.1-.3-.2-.6-.2-.9v-8.2H323v8.2c0 .3-.1.7-.2.9-.1.3-.3.5-.5.7-.2.2-.4.3-.7.4-.3.1-.5.1-.8.1-.3 0-.5 0-.8-.1-.3-.1-.5-.2-.7-.4-.2-.2-.4-.4-.5-.7-.1-.3-.2-.6-.2-.9v-19.1c0-.3.1-.6.2-.9.1-.3.3-.5.5-.7.2-.2.4-.3.7-.4.3-.1.5-.1.8-.1.3 0 .5 0 .8.1.3.1.5.2.7.4.2.2.4.4.5.7.1.3.2.6.2.9v7.4h10.4v-7.4zM366.2 333c.1.2.1.4.1.6 0 .3-.1.6-.2.8-.1.2-.3.4-.5.6-.2.2-.4.3-.7.4-.3.1-.5.1-.8.1-.4 0-.8-.1-1.1-.3-.4-.2-.6-.6-.7-1l-1.7-4.3h-10.4l-1.7 4.3c-.1.5-.4.8-.7 1.1-.3.2-.7.3-1.1.3-.3 0-.5 0-.8-.1-.3-.1-.5-.2-.7-.4-.2-.2-.4-.4-.5-.6-.1-.2-.2-.5-.2-.8v-.3c0-.1.1-.2.1-.4l6.8-17c.3-.8.5-1.4.8-1.9.3-.5.6-.9.9-1.1.3-.3.6-.5 1-.6.4-.1.8-.2 1.2-.2.5 0 .9.1 1.2.2.4.1.7.3 1 .6.3.3.6.7.9 1.1.3.5.5 1.1.8 1.8l7 17.1zm-10.8-17.5-4.3 11.5h8.6l-4.3-11.5zM373.3 314.3c0-.3.1-.6.2-.8.1-.2.3-.5.4-.7s.4-.3.7-.4c.3-.1.5-.2.8-.2h8.2c1 0 2 .1 2.8.4s1.6.7 2.2 1.2c.6.5 1.1 1.1 1.4 1.8.3.7.5 1.5.5 2.4 0 .6-.1 1.2-.3 1.8-.2.6-.5 1.1-.9 1.6s-.9.9-1.4 1.2c-.5.3-1.1.6-1.8.7v.1c.8.1 1.5.3 2.2.7.7.3 1.2.7 1.7 1.2s.8 1.1 1.1 1.7.4 1.4.4 2.1c0 .8-.1 1.5-.4 2.3-.3.8-.7 1.4-1.4 2-.6.6-1.4 1.1-2.4 1.5-1 .4-2.2.6-3.6.6h-8.3c-.3 0-.6-.1-.8-.2-.3-.1-.5-.3-.7-.4-.2-.2-.3-.4-.4-.7-.1-.3-.2-.5-.2-.8v-19.1zm4.2.8v7.2h4c.6 0 1.3-.1 1.8-.2.6-.1 1.1-.4 1.5-.6.4-.3.8-.7 1-1.1s.4-1 .4-1.7-.1-1.3-.4-1.8c-.3-.5-.6-.8-1.1-1.1-.4-.3-1-.4-1.5-.6-.6-.1-1.2-.2-1.8-.2h-3.9zm0 17.5h4.1c.9 0 1.7-.1 2.4-.2s1.3-.3 1.7-.6c.5-.3.8-.7 1.1-1.2.2-.5.4-1.2.4-1.9 0-.8-.2-1.5-.5-2s-.8-.9-1.3-1.2c-.6-.3-1.2-.5-2-.6-.8-.1-1.7-.2-2.6-.2h-3.2v7.9zM401.8 335.5c-.3 0-.5-.1-.8-.2-.3-.1-.5-.3-.7-.5-.2-.2-.4-.4-.5-.7-.1-.3-.2-.5-.2-.8v-19.1c0-.3.1-.5.2-.8s.2-.5.4-.7c.2-.2.4-.4.7-.5.2-.1.5-.2.8-.2h11.8c.3 0 .5 0 .7.1.2.1.4.2.5.4.1.2.2.3.3.5.1.2.1.4.1.6 0 .2 0 .4-.1.6-.1.2-.2.4-.3.5-.1.2-.3.3-.5.4-.2.1-.4.1-.7.1h-9.6v6.6h9c.3 0 .5 0 .7.1.2.1.4.2.5.4.1.2.2.3.3.5.1.2.1.4.1.6 0 .2 0 .4-.1.6-.1.2-.2.4-.3.5-.1.2-.3.3-.5.4-.2.1-.4.1-.7.1h-9v7.1h10c.3 0 .5 0 .7.1.2.1.4.2.5.4.1.2.2.3.3.5.1.2.1.4.1.6 0 .2 0 .4-.1.6-.1.2-.2.4-.3.5-.1.2-.3.3-.5.4-.2.1-.4.1-.7.1h-12.1zM442.8 333c.1.2.1.4.1.6 0 .3-.1.6-.2.8-.1.2-.3.4-.5.6-.2.2-.4.3-.7.4-.3.1-.5.1-.8.1-.4 0-.8-.1-1.1-.3-.4-.2-.6-.6-.7-1l-1.7-4.3h-10.4l-1.7 4.3c-.1.5-.4.8-.7 1.1s-.7.3-1.1.3c-.3 0-.5 0-.8-.1-.3-.1-.5-.2-.7-.4-.2-.2-.4-.4-.5-.6-.1-.2-.2-.5-.2-.8v-.3c0-.1 0-.2.1-.4l6.8-17c.3-.8.5-1.4.8-1.9.3-.5.6-.9.9-1.1.3-.3.6-.5 1-.6.4-.1.8-.2 1.2-.2.5 0 .9.1 1.2.2.4.1.7.3 1 .6.3.3.6.7.9 1.1.3.5.5 1.1.8 1.8l7 17.1zM432 315.5l-4.3 11.5h8.6l-4.3-11.5zM449.7 314.8c0-.4.1-.8.2-1.1.1-.3.3-.6.5-.8.2-.2.5-.4.7-.5.3-.1.6-.2.9-.2.4 0 .8.1 1.2.3.4.2.8.5 1.1.9l11.3 16.3V314c0-.3.1-.6.2-.8.1-.2.3-.4.4-.6.2-.2.4-.3.6-.4s.5-.1.7-.1c.2 0 .5 0 .7.1l.6.3c.2.2.3.4.4.6.1.2.2.5.2.8v18.9c0 .4-.1.8-.2 1.1-.1.3-.3.6-.5.8-.2.2-.5.4-.8.5-.3.1-.6.2-.9.2-.4 0-.8-.1-1.2-.3-.4-.2-.8-.5-1.1-.9L453.6 318v15.7c0 .3-.1.6-.2.8-.1.2-.3.4-.4.6s-.4.3-.6.3c-.2.1-.5.1-.7.1-.2 0-.5 0-.7-.1l-.6-.3c-.2-.2-.3-.3-.4-.6-.1-.2-.2-.5-.2-.8v-18.9zM477.4 315.5c-.3 0-.5 0-.7-.1-.2-.1-.4-.2-.5-.4-.1-.2-.2-.3-.3-.5-.1-.2-.1-.4-.1-.6 0-.2 0-.4.1-.6.1-.2.2-.4.3-.5.1-.2.3-.3.5-.4.2-.1.4-.1.7-.1h15.3c.3 0 .5 0 .7.1.2.1.4.2.5.4.1.2.2.3.3.5.1.2.1.4.1.6 0 .2 0 .4-.1.6-.1.2-.2.4-.3.5-.1.2-.3.3-.5.4-.2.1-.5.1-.7.1h-5.4v17.9c0 .3-.1.7-.2.9-.1.3-.3.5-.5.7-.2.2-.4.3-.7.4-.3.1-.5.1-.8.1-.3 0-.5 0-.8-.1-.3-.1-.5-.2-.7-.4-.2-.2-.4-.4-.5-.7-.1-.3-.2-.6-.2-.9v-17.9h-5.5zM619.1 246.7l-26.4-37.8c-1.7.2-3.3.2-5 .2h-29.1v37.6h-24v-129h53.1c33.9 0 54.9 17.3 54.9 45.9 0 19.5-10 33.9-27.5 40.7l29.7 42.4h-25.7zM586.7 138h-28v51.4h28c21 0 31.9-9.6 31.9-25.8S607.7 138 586.7 138zM660.2 182.2c0-38.1 29.5-66.3 69.5-66.3s69.5 28 69.5 66.3-29.5 66.3-69.5 66.3-69.5-28.1-69.5-66.3zm114.8 0c0-26.4-19.3-45.3-45.3-45.3s-45.3 19-45.3 45.3c0 26.4 19.3 45.3 45.3 45.3s45.3-18.9 45.3-45.3zM813.7 233.1l8.3-18.6c10.3 8.3 26.7 14.2 42.6 14.2 20.1 0 28.6-7.2 28.6-16.8 0-27.8-76.7-9.6-76.7-57.5 0-20.8 16.6-38.5 52-38.5 15.5 0 31.7 4.1 42.9 11.4l-7.6 18.6c-11.6-6.8-24.3-10.1-35.6-10.1-19.9 0-28 7.7-28 17.5 0 27.5 76.5 9.6 76.5 56.9 0 20.6-16.8 38.3-52.2 38.3-20 .1-40.1-6.2-50.8-15.4zM1024.2 216.9h-64.5L947 246.8h-24.7l58-129h23.6l58.2 129H1037l-12.8-29.9zm-8-18.8-24.3-56.4-24.1 56.4h48.4zm-19.7-90.9h-19.9l24.9-25.2h27.1l-32.1 25.2zM1162.9 246.7l-26.4-37.8c-1.7.2-3.3.2-5 .2h-29.1v37.6h-24v-129h53.1c33.9 0 54.9 17.3 54.9 45.9 0 19.5-10 33.9-27.5 40.7l29.7 42.4h-25.7zM1130.5 138h-28v51.4h28c21 0 31.9-9.6 31.9-25.8s-10.9-25.6-31.9-25.6zM1213.2 117.7h24v129h-24v-129zM1262.8 182.2c0-38.1 29.5-66.3 69.5-66.3s69.5 28 69.5 66.3-29.5 66.3-69.5 66.3-69.5-28.1-69.5-66.3zm114.8 0c0-26.4-19.3-45.3-45.3-45.3s-45.3 19-45.3 45.3c0 26.4 19.3 45.3 45.3 45.3s45.3-18.9 45.3-45.3zM533.2 286.5c0-8.1 6.2-14.1 14.5-14.1 4 0 7.7 1.3 10.1 4l-1.9 1.9c-2.3-2.3-5-3.3-8.2-3.3-6.7 0-11.7 4.9-11.7 11.5s5 11.5 11.7 11.5c3.2 0 5.9-1 8.2-3.3l1.9 1.9c-2.4 2.7-6.1 4.1-10.2 4.1-8.2-.2-14.4-6.1-14.4-14.2zM560.5 289.9c0-6.2 4.5-10.5 10.6-10.5s10.5 4.4 10.5 10.5-4.5 10.6-10.5 10.6c-6.1 0-10.6-4.4-10.6-10.6zm18.3 0c0-4.9-3.3-8.1-7.7-8.1s-7.7 3.2-7.7 8.1 3.3 8.1 7.7 8.1 7.7-3.2 7.7-8.1zM587.4 271h2.8v29.3h-2.8V271zM616.1 290.8h-17.4c.3 4.3 3.6 7.2 8.2 7.2 2.5 0 4.8-.9 6.4-2.7l1.6 1.8c-1.9 2.2-4.7 3.4-8 3.4-6.5 0-10.9-4.4-10.9-10.6s4.3-10.5 10.2-10.5c5.8 0 10.1 4.3 10.1 10.5-.2.2-.2.5-.2.9zm-17.4-2.1h14.7c-.4-4.1-3.3-6.9-7.4-6.9-4 0-6.9 2.8-7.3 6.9zm7.5-12.4h-2.8l5.4-4.9h3.8l-6.4 4.9zM641.1 279.5v18.3c0 7.2-3.5 10.4-10.4 10.4-3.8 0-7.5-1.1-9.7-3.2l1.4-2.1c2 1.8 5 2.8 8.2 2.8 5.3 0 7.7-2.4 7.7-7.5v-2.6c-1.7 2.6-4.7 4-8.1 4-5.9 0-10.4-4.1-10.4-10.1s4.5-10 10.4-10c3.5 0 6.5 1.4 8.2 4.1v-4h2.7zm-2.7 9.9c0-4.5-3.3-7.6-7.9-7.6s-7.9 3.1-7.9 7.6 3.3 7.6 7.9 7.6 7.9-3.1 7.9-7.6zM648.3 272.9c0-1.1.9-2 2.1-2 1.1 0 2.1.9 2.1 1.9 0 1.1-.9 2.1-2.1 2.1-1.2.1-2.1-.8-2.1-2zm.7 6.6h2.8v20.8H649v-20.8zM657.5 289.9c0-6.2 4.5-10.5 10.6-10.5s10.5 4.4 10.5 10.5-4.5 10.6-10.5 10.6c-6.1 0-10.6-4.4-10.6-10.6zm18.3 0c0-4.9-3.3-8.1-7.7-8.1s-7.7 3.2-7.7 8.1 3.3 8.1 7.7 8.1 7.7-3.2 7.7-8.1zM713.7 271v29.3H711v-4.1c-1.7 2.8-4.6 4.3-8 4.3-5.9 0-10.4-4.3-10.4-10.6s4.4-10.5 10.4-10.5c3.3 0 6.2 1.4 7.9 4.1V271h2.8zm-2.8 18.9c0-4.9-3.3-8.1-7.7-8.1s-7.7 3.2-7.7 8.1 3.3 8.1 7.7 8.1 7.7-3.2 7.7-8.1zM739.6 290.8h-17.4c.3 4.3 3.6 7.2 8.2 7.2 2.5 0 4.8-.9 6.4-2.7l1.6 1.8c-1.9 2.2-4.7 3.4-8 3.4-6.5 0-10.9-4.4-10.9-10.6s4.3-10.5 10.2-10.5c5.8 0 10.1 4.3 10.1 10.5-.2.2-.2.5-.2.9zm-17.4-2.1h14.7c-.4-4.1-3.3-6.9-7.4-6.9-4 0-6.9 2.8-7.3 6.9zM779.4 272.6v27.7H777l-17.8-22.4v22.4h-2.9v-27.7h2.4l17.8 22.4v-22.4h2.9zM785.7 289.9c0-6.2 4.5-10.5 10.6-10.5s10.5 4.4 10.5 10.5-4.5 10.6-10.5 10.6c-6.1 0-10.6-4.4-10.6-10.6zm18.3 0c0-4.9-3.3-8.1-7.7-8.1s-7.7 3.2-7.7 8.1 3.3 8.1 7.7 8.1c4.5 0 7.7-3.2 7.7-8.1zM809.7 297.9l1.3-2.2c1.7 1.3 4.5 2.3 7.4 2.3 4 0 5.6-1.3 5.6-3.4 0-5.4-13.5-1.1-13.5-9.4 0-3.4 2.9-5.9 8.2-5.9 2.7 0 5.6.8 7.3 1.9l-1.2 2.3c-1.8-1.3-4-1.8-6.1-1.8-3.8 0-5.4 1.5-5.4 3.4 0 5.6 13.5 1.4 13.5 9.4 0 3.6-3.2 5.9-8.6 5.9-3.5.1-6.8-1-8.5-2.5zM829 297.9l1.3-2.2c1.7 1.3 4.5 2.3 7.4 2.3 4 0 5.6-1.3 5.6-3.4 0-5.4-13.5-1.1-13.5-9.4 0-3.4 2.9-5.9 8.2-5.9 2.7 0 5.6.8 7.3 1.9l-1.2 2.3c-1.8-1.3-4-1.8-6.1-1.8-3.8 0-5.4 1.5-5.4 3.4 0 5.6 13.5 1.4 13.5 9.4 0 3.6-3.2 5.9-8.6 5.9-3.4.1-6.8-1-8.5-2.5zM866.9 287.4v12.9h-2.7V297c-1.3 2.1-3.7 3.4-7.2 3.4-4.7 0-7.6-2.4-7.6-6 0-3.2 2.1-5.9 8-5.9h6.6v-1.3c0-3.6-2-5.5-5.9-5.5-2.7 0-5.2.9-6.9 2.4l-1.3-2.1c2.1-1.8 5.2-2.8 8.5-2.8 5.5.1 8.5 2.8 8.5 8.2zm-2.8 6.6v-3.4h-6.5c-4 0-5.3 1.6-5.3 3.7 0 2.4 1.9 3.9 5.3 3.9 3.1.1 5.4-1.4 6.5-4.2zM882.9 296.9l1.1-2.3c2 1.9 5.5 3.4 9.1 3.4 5.2 0 7.4-2.2 7.4-4.9 0-7.6-17-2.9-17-13.2 0-4.1 3.2-7.6 10.2-7.6 3.1 0 6.4.9 8.6 2.4l-1 2.3c-2.4-1.5-5.1-2.3-7.6-2.3-5.1 0-7.3 2.3-7.3 5 0 7.6 17 3 17 13.1 0 4.1-3.2 7.5-10.3 7.5-4.1.2-8.2-1.2-10.2-3.4zM927.3 290.8h-17.4c.3 4.3 3.6 7.2 8.2 7.2 2.5 0 4.8-.9 6.4-2.7l1.6 1.8c-1.9 2.2-4.7 3.4-8 3.4-6.5 0-10.9-4.4-10.9-10.6s4.3-10.5 10.2-10.5c5.8 0 10.1 4.3 10.1 10.5-.2.2-.2.5-.2.9zm-17.4-2.1h14.7c-.4-4.1-3.3-6.9-7.4-6.9-4 0-6.9 2.8-7.3 6.9zM952.2 288.2v12h-2.8v-11.8c0-4.4-2.3-6.6-6.2-6.6-4.5 0-7.3 2.8-7.3 7.5v10.9h-2.8v-20.8h2.7v3.8c1.5-2.5 4.3-4 7.9-4 5 .1 8.5 3.1 8.5 9zM978.9 288.2v12h-2.8v-11.8c0-4.4-2.3-6.6-6.2-6.6-4.5 0-7.3 2.8-7.3 7.5v10.9h-2.8V271h2.8v12.2c1.5-2.4 4.3-3.8 7.8-3.8 5.1-.1 8.5 2.9 8.5 8.8zM984.6 289.9c0-6.2 4.5-10.5 10.6-10.5s10.5 4.4 10.5 10.5-4.5 10.6-10.5 10.6c-6.1 0-10.6-4.4-10.6-10.6zm18.3 0c0-4.9-3.3-8.1-7.7-8.1s-7.7 3.2-7.7 8.1 3.3 8.1 7.7 8.1 7.7-3.2 7.7-8.1zM1021.9 279.3v2.7h-.7c-4.3 0-7 2.8-7 7.7v10.6h-2.8v-20.8h2.7v4.1c1.3-2.8 4-4.3 7.8-4.3zM1042.6 287.4v12.9h-2.7V297c-1.3 2.1-3.7 3.4-7.2 3.4-4.7 0-7.6-2.4-7.6-6 0-3.2 2.1-5.9 8-5.9h6.6v-1.3c0-3.6-2-5.5-5.9-5.5-2.7 0-5.2.9-6.9 2.4l-1.3-2.1c2.1-1.8 5.2-2.8 8.5-2.8 5.5.1 8.5 2.8 8.5 8.2zm-2.8 6.6v-3.4h-6.5c-4 0-5.3 1.6-5.3 3.7 0 2.4 1.9 3.9 5.3 3.9 3.1.1 5.4-1.4 6.5-4.2zM1079.5 271v29.3h-2.7v-4.1c-1.7 2.8-4.6 4.3-8 4.3-5.9 0-10.4-4.3-10.4-10.6s4.4-10.5 10.4-10.5c3.3 0 6.2 1.4 7.9 4.1V271h2.8zm-2.7 18.9c0-4.9-3.3-8.1-7.7-8.1s-7.7 3.2-7.7 8.1 3.3 8.1 7.7 8.1 7.7-3.2 7.7-8.1zM1085.3 289.9c0-6.2 4.5-10.5 10.6-10.5s10.5 4.4 10.5 10.5-4.5 10.6-10.5 10.6c-6.1 0-10.6-4.4-10.6-10.6zm18.3 0c0-4.9-3.3-8.1-7.7-8.1s-7.7 3.2-7.7 8.1 3.3 8.1 7.7 8.1 7.7-3.2 7.7-8.1zM1142 300.3l-6.3-8.9c-.7.1-1.4.1-2.2.1h-7.4v8.8h-2.9v-27.7h10.4c7 0 11.3 3.6 11.3 9.5 0 4.3-2.3 7.4-6.3 8.7l6.8 9.5h-3.4zm-.2-18.2c0-4.4-2.9-7-8.5-7h-7.3V289h7.3c5.6 0 8.5-2.5 8.5-6.9zM1149 289.9c0-6.2 4.5-10.5 10.6-10.5s10.5 4.4 10.5 10.5-4.5 10.6-10.5 10.6c-6.1 0-10.6-4.4-10.6-10.6zm18.3 0c0-4.9-3.3-8.1-7.7-8.1s-7.7 3.2-7.7 8.1 3.3 8.1 7.7 8.1 7.7-3.2 7.7-8.1zM1172.9 297.9l1.3-2.2c1.7 1.3 4.5 2.3 7.4 2.3 4 0 5.6-1.3 5.6-3.4 0-5.4-13.5-1.1-13.5-9.4 0-3.4 2.9-5.9 8.2-5.9 2.7 0 5.6.8 7.3 1.9l-1.2 2.3c-1.8-1.3-4-1.8-6.1-1.8-3.8 0-5.4 1.5-5.4 3.4 0 5.6 13.5 1.4 13.5 9.4 0 3.6-3.2 5.9-8.6 5.9-3.4.1-6.8-1-8.5-2.5zM1210.8 287.4v12.9h-2.7V297c-1.3 2.1-3.7 3.4-7.2 3.4-4.7 0-7.6-2.4-7.6-6 0-3.2 2.1-5.9 8-5.9h6.6v-1.3c0-3.6-2-5.5-5.9-5.5-2.7 0-5.2.9-6.9 2.4l-1.3-2.1c2.1-1.8 5.2-2.8 8.5-2.8 5.5.1 8.5 2.8 8.5 8.2zm-2.8 6.6v-3.4h-6.5c-4 0-5.3 1.6-5.3 3.7 0 2.4 1.9 3.9 5.3 3.9 3.1.1 5.4-1.4 6.5-4.2zm-5.3-17.7h-2.8l5.4-4.9h3.8l-6.4 4.9zM1228.9 279.3v2.7h-.7c-4.3 0-7 2.8-7 7.7v10.6h-2.8v-20.8h2.7v4.1c1.4-2.8 4-4.3 7.8-4.3zM1233.4 272.9c0-1.1.9-2 2.1-2 1.1 0 2.1.9 2.1 1.9 0 1.1-.9 2.1-2.1 2.1-1.2.1-2.1-.8-2.1-2zm.6 6.6h2.8v20.8h-2.8v-20.8zM1242.5 289.9c0-6.2 4.5-10.5 10.6-10.5s10.5 4.4 10.5 10.5-4.5 10.6-10.5 10.6c-6.1 0-10.6-4.4-10.6-10.6zm18.3 0c0-4.9-3.3-8.1-7.7-8.1s-7.7 3.2-7.7 8.1 3.3 8.1 7.7 8.1 7.7-3.2 7.7-8.1zM1280.3 271h2.6v37h-2.6v-37zM1324 282.1c0 5.9-4.3 9.4-11.3 9.4h-7.4v8.7h-2.9v-27.7h10.4c6.9.1 11.2 3.7 11.2 9.6zm-2.9 0c0-4.4-2.9-7-8.5-7h-7.3V289h7.3c5.5 0 8.5-2.5 8.5-6.9zM1327.5 289.9c0-6.2 4.5-10.5 10.6-10.5s10.5 4.4 10.5 10.5-4.5 10.6-10.5 10.6c-6.1 0-10.6-4.4-10.6-10.6zm18.3 0c0-4.9-3.3-8.1-7.7-8.1s-7.7 3.2-7.7 8.1 3.3 8.1 7.7 8.1 7.7-3.2 7.7-8.1zM1364.8 279.3v2.7h-.7c-4.3 0-7 2.8-7 7.7v10.6h-2.8v-20.8h2.7v4.1c1.4-2.8 4-4.3 7.8-4.3zM1381.8 299c-1.1 1-2.8 1.5-4.4 1.5-3.9 0-6.1-2.2-6.1-6v-12.6h-3.7v-2.4h3.7V275h2.8v4.5h6.3v2.4h-6.3v12.4c0 2.4 1.3 3.8 3.6 3.8 1.1 0 2.3-.4 3.1-1.1l1 2zM1384 289.9c0-6.2 4.5-10.5 10.6-10.5s10.5 4.4 10.5 10.5-4.5 10.6-10.5 10.6c-6.1 0-10.6-4.4-10.6-10.6zm18.3 0c0-4.9-3.3-8.1-7.7-8.1s-7.7 3.2-7.7 8.1 3.3 8.1 7.7 8.1 7.7-3.2 7.7-8.1z"/>
    </g>
</svg>
